# xmcd
#
# Track frame offsets: 
#        150
#        11100
#        20747
#        33382
#        45012
#        56702
#        67147
#        78280
#        89987
#        103160
#        113807
#        126705
#        138577
#        148772
#        160672
#        171432
#        183217
#        193385
#        203632
#        215140
#        225920
#        236982
#        248887
#        259615
#        271645
#
# Disc length: 3689 seconds
#
# Revision: 4
# Processed by: cddbd v1.5.2PL0 Copyright (c) Steve Scherf et al.
# Submitted via: ExactAudioCopyFreeDBPlugin 1.0
#
DISCID=790e6719
DTITLE=Earl King - Earl's Pearls:  The Very Best of Earl King (1955-19
DTITLE=60)
DYEAR=1997
DGENRE=Blues
TTITLE0=Those Lonely, Lonely Nights
TTITLE1=Baby You Can Get Your Gun
TTITLE2=Everybody Got to Cry (as "Handsome Earl")
TTITLE3=I'm Packing Up
TTITLE4=Nobody Cares
TTITLE5=Little Girl
TTITLE6=My Love is Strong
TTITLE7=It Must Have Been Love
TTITLE8=I'll Take You Back Home
TTITLE9=Mother Told Me Not to Go
TTITLE10=Is Everything Alright
TTITLE11=Those Lonely, Lonely Feelings
TTITLE12=You Can Fly High
TTITLE13=Well 'O Well 'O Well 'O Baby
TTITLE14=I'll Never Get Tired
TTITLE15=A Weary Silent Night
TTITLE16=Everybody's Carried Away
TTITLE17=Buddy It's Time to Go
TTITLE18=Don't You Know You're Wrong
TTITLE19=Darling Honey Angel Child
TTITLE20=I Can't Help Myself
TTITLE21=I Met a Stranger (as "Handsome Earl")
TTITLE22=Let the Good Times Roll
TTITLE23=A Mother's Love
TTITLE24=Baby Hurry on Home
EXTD=Earl King was a New Orleans bluesman. "Earl's Pearls" is a\n'best
EXTD=of' album, with songs covering King's peak period,\n1955-1960.
EXTT0=
EXTT1=
EXTT2=
EXTT3=
EXTT4=
EXTT5=
EXTT6=
EXTT7=
EXTT8=
EXTT9=
EXTT10=
EXTT11=
EXTT12=
EXTT13=
EXTT14=
EXTT15=
EXTT16=
EXTT17=
EXTT18=
EXTT19=
EXTT20=
EXTT21=
EXTT22=
EXTT23=
EXTT24=
PLAYORDER=
